<svg width="104" height="103" viewBox="0 0 104 103" fill="none" xmlns="http://www.w3.org/2000/svg">
<mask id="mask0_1_37" style="mask-type:alpha" maskUnits="userSpaceOnUse" x="0" y="0" width="104" height="103">
<rect x="0.5" width="103" height="103" fill="#D9D9D9"/>
</mask>
<g mask="url(#mask0_1_37)">
<path d="M19.8125 90.125C18.0243 90.125 16.5043 89.4991 15.2526 88.2474C14.0009 86.9957 13.375 85.4757 13.375 83.6875V19.3125C13.375 17.5243 14.0009 16.0043 15.2526 14.7526C16.5043 13.5009 18.0243 12.875 19.8125 12.875H63.6948V19.3125H19.8125V83.6875H84.1875V39.9125H90.625V83.6875C90.625 85.4757 89.9991 86.9957 88.7474 88.2474C87.4957 89.4991 85.9757 90.125 84.1875 90.125H19.8125ZM75.6042 36.6937V28.0031H66.9135V21.5656H75.6042V12.875H82.0417V21.5656H90.7323V28.0031H82.0417V36.6937H75.6042ZM26.25 72.7438H77.75L62.3 52.1437L48.674 70.0615L38.5885 56.7573L26.25 72.7438Z" fill="#1C1B1F"/>
</g>
</svg>
