<svg width="33" height="30" viewBox="0 0 33 30" fill="none" xmlns="http://www.w3.org/2000/svg">
<mask id="mask0_106_695" style="mask-type:alpha" maskUnits="userSpaceOnUse" x="0" y="0" width="33" height="30">
<rect width="33" height="30" fill="#D9D9D9"/>
</mask>
<g mask="url(#mask0_106_695)">
<path d="M15.1594 26.25V23.5625C13.9448 23.3125 12.8966 22.8333 12.0148 22.125C11.132 21.4167 10.4844 20.4167 10.0719 19.125L12.6156 18.1875C12.9594 19.1875 13.4695 19.9479 14.146 20.4688C14.8216 20.9896 15.7094 21.25 16.8094 21.25C17.749 21.25 18.5456 21.0575 19.1992 20.6725C19.8518 20.2867 20.1781 19.6875 20.1781 18.875C20.1781 18.1458 19.9261 17.5675 19.4219 17.14C18.9177 16.7133 17.749 16.2292 15.9156 15.6875C13.9448 15.125 12.5927 14.4533 11.8594 13.6725C11.1261 12.8908 10.7594 11.9375 10.7594 10.8125C10.7594 9.45833 11.2406 8.40625 12.2031 7.65625C13.1656 6.90625 14.1511 6.47917 15.1594 6.375V3.75H17.9094V6.375C19.0552 6.54167 20.0008 6.92167 20.746 7.515C21.4904 8.10917 22.0344 8.83333 22.3781 9.6875L19.8344 10.6875C19.5594 10.0208 19.1698 9.52083 18.6656 9.1875C18.1615 8.85417 17.474 8.6875 16.6031 8.6875C15.5948 8.6875 14.8271 8.89083 14.3 9.2975C13.7729 9.70333 13.5094 10.2083 13.5094 10.8125C13.5094 11.5 13.8531 12.0417 14.5406 12.4375C15.2281 12.8333 16.4198 13.25 18.1156 13.6875C19.6969 14.1042 20.8945 14.7654 21.7085 15.6712C22.5216 16.5779 22.9281 17.625 22.9281 18.8125C22.9281 20.2917 22.4469 21.4167 21.4844 22.1875C20.5219 22.9583 19.3302 23.4375 17.9094 23.625V26.25H15.1594Z" fill="#1C1B1F"/>
</g>
</svg>
