<svg width="30" height="30" viewBox="0 0 30 30" fill="none" xmlns="http://www.w3.org/2000/svg">
<mask id="mask0_107_712" style="mask-type:alpha" maskUnits="userSpaceOnUse" x="0" y="0" width="30" height="30">
<rect width="30" height="30" fill="#D9D9D9"/>
</mask>
<g mask="url(#mask0_107_712)">
<path d="M2.5 30V25H27.5V30H2.5ZM5 22.5V17.8125L16.3125 6.5L21 11.1875L9.6875 22.5H5ZM7.5 20H8.625L17.5 11.1875L16.3125 10L7.5 18.875V20ZM22.4062 9.8125L17.7188 5.125L19.9688 2.875C20.1979 2.625 20.4896 2.505 20.8437 2.515C21.1979 2.52583 21.4896 2.64583 21.7188 2.875L24.6563 5.8125C24.8854 6.04167 25 6.32833 25 6.6725C25 7.01583 24.8854 7.3125 24.6563 7.5625L22.4062 9.8125Z" fill="#1C1B1F"/>
</g>
</svg>
